# xmcd
#
# Track frame offsets:
#	150
#	46619
#	125144
#	176673
#	234992
#
# Disc length: 3772 seconds
#
# Revision: 1
# Processed by: cddbd v1.5.2PL0 Copyright (c) Steve Scherf et al.
# Submitted via: audiograbber 1.83.01
#
DISCID=390eba05
DTITLE=Aphonic Threnody - When death comes
DYEAR=2014
DGENRE=Doom
TTITLE0=The ghost's song
TTITLE1=Death obsession
TTITLE2=Dementia
TTITLE3=The children's sleep
TTITLE4=Our way to the ground
EXTD=
EXTT0=
EXTT1=
EXTT2=
EXTT3=
EXTT4=
PLAYORDER=
